# xmcd
#
# Track frame offsets:
#	150
#	19832
#	39092
#	51512
#	60964
#	73032
#	87127
#	104290
#	127768
#	147791
#	163513
#	174466
#	183747
#	216772
#	233538
#	249980
#	261226
#	283562
#	298099
#	304915
#	318850
#	339688
#
# Disc length: 4693 seconds
#
# Revision: 0
# Processed by: cddbd v1.5.1PL2 Copyright (c) Steve Scherf et al.
# Submitted via: audiograbber 1.81.03
#
DISCID=37125316
DTITLE=DIAFOROI - ANTISTASH
DYEAR=1900
DGENRE=Ballad
TTITLE0=HALKIAS, MARKOPOULOS - H fabrika
TTITLE1=ASIMOS - Ego me tis idees mou
TTITLE2=NINO ROTA - Canzone arrabbiata
TTITLE3=SAVVOPOULOS - San ton karagiozi
TTITLE4=SIDIROPOULOS - H fantasia stin eksousia
TTITLE5=SAVVOPOULOS - Gia ta paidia
TTITLE6=KANA, LOIZOS - Tha kleiso to parathyro
TTITLE7=ALEXIOU, MPAKALAKOS - To gramma
TTITLE8=ASIMOS - Mpagasas
TTITLE9=SAVVOPOULOS - Ilie ilie arhige
TTITLE10=MPAKALAKOS - Proti tou Mai
TTITLE11=SIDIROPOULOS - Tis ethnikis symfiliosis
TTITLE12=SAVVOPOULOS - Mpallos
TTITLE13=MALAMAS - Kalinyhta
TTITLE14=SAVVOPOULOS - O politeftis
TTITLE15=SAVVOPOULOS - H sygentrosi tis EFEE
TTITLE16=KAZANTZIDIS, THEODORAKIS - Savvatovrado
TTITLE17=SIDIROPOULOS - Ante kai kali tyhi
TTITLE18=SAVVOPOULOS - Paranga
TTITLE19=PASHALIDIS, LOIZOS - Tse
TTITLE20=SAVVOPOULOS - Asteiakia kai satyres
TTITLE21=XYLOURIS - Pte tha kanei ksasteria
EXTD=
EXTT0=
EXTT1=
EXTT2=
EXTT3=
EXTT4=
EXTT5=
EXTT6=
EXTT7=
EXTT8=
EXTT9=
EXTT10=
EXTT11=
EXTT12=
EXTT13=
EXTT14=
EXTT15=
EXTT16=
EXTT17=
EXTT18=
EXTT19=
EXTT20=
EXTT21=
PLAYORDER=
